<svg width="18" height="18" viewBox="0 0 18 18" fill="none" xmlns="http://www.w3.org/2000/svg">
<path d="M10.2133 16.0253C9.88807 16.3298 9.4533 16.5 9.00082 16.5C8.54835 16.5 8.11365 16.3298 7.78838 16.0253C4.80977 13.2195 0.81807 10.0852 2.7647 5.53475C3.81722 3.07437 6.34375 1.5 9.00082 1.5C11.6579 1.5 14.1845 3.07437 15.237 5.53475C17.1812 10.0795 13.1992 13.2292 10.2133 16.0253Z" stroke="#1DA15B" stroke-width="1.125"/>
<path d="M11.625 8.25C11.625 9.69975 10.4497 10.875 9 10.875C7.55025 10.875 6.375 9.69975 6.375 8.25C6.375 6.80025 7.55025 5.625 9 5.625C10.4497 5.625 11.625 6.80025 11.625 8.25Z" stroke="#1DA15B" stroke-width="1.125"/>
</svg>
